<svg width="534" height="144" viewBox="0 0 534 144" fill="none" xmlns="http://www.w3.org/2000/svg">
<g opacity="0.6">
<path opacity="0.6" d="M17.98 143.38H0L106.53 0H124.51L17.98 143.38Z" fill="#003B4C"/>
<path opacity="0.6" d="M76.41 143.38H58.43L164.96 0H182.94L76.41 143.38Z" fill="#003B4C"/>
<path opacity="0.6" d="M134.84 143.38H116.87L223.4 0H241.37L134.84 143.38Z" fill="#003B4C"/>
<path opacity="0.6" d="M193.28 143.38H175.3L281.83 0H299.81L193.28 143.38Z" fill="#003B4C"/>
<path opacity="0.6" d="M251.71 143.38H233.73L340.26 0H358.24L251.71 143.38Z" fill="#003B4C"/>
<path opacity="0.6" d="M310.14 143.38H292.16L398.69 0H416.67L310.14 143.38Z" fill="#003B4C"/>
<path opacity="0.6" d="M368.57 143.38H350.59L457.13 0H475.1L368.57 143.38Z" fill="#003B4C"/>
<path opacity="0.6" d="M427.01 143.38H409.03L515.56 0H533.54L427.01 143.38Z" fill="#003B4C"/>
</g>
</svg>
