<svg width="955" height="308" viewBox="0 0 955 308" fill="none" xmlns="http://www.w3.org/2000/svg">
<g opacity="0.5">
<path opacity="0.5" d="M0 102.466C35.63 134.096 89.49 127.186 124.78 111.666C152.32 99.5559 176.78 81.2859 200.41 63.6159C211.15 55.6159 222.26 47.2859 233.5 39.6759C278.33 9.33587 319.2 -2.65413 354.96 4.02587C394.76 11.4759 425.45 40.9359 455.13 69.4359C485.69 98.7859 517.3 129.136 558.96 135.596C597.13 141.506 633.59 125.736 668.84 110.496C688.65 101.936 709.12 93.0759 729.84 88.0059C790.6 73.1659 858.09 92.0659 901.78 136.186C945.47 180.306 962.92 247.186 946.26 306.546L948.5 307.146C965.37 247.006 947.69 179.276 903.44 134.596C859.19 89.9159 790.82 70.7559 729.31 85.8259C708.37 90.9459 687.8 99.8259 667.91 108.436C631.35 124.246 596.82 139.176 559.33 133.366C518.39 127.026 487.05 96.9359 456.75 67.8359C426.82 39.0959 395.88 9.38587 355.4 1.83587C319 -4.96413 277.54 7.14587 232.19 37.8359C220.9 45.4759 209.77 53.8359 199 61.8359C175.47 79.4259 151.13 97.6259 123.84 109.626C89.18 124.826 36.36 131.666 1.56 100.826L0 102.466Z" fill="#A04779"/>
</g>
</svg>
